<?xml version="1.0" encoding="iso-8859-1"?>
<!-- Generator: Adobe Illustrator 19.0.0, SVG Export Plug-In . SVG Version: 6.00 Build 0)  -->
<svg xmlns="http://www.w3.org/2000/svg" xmlns:xlink="http://www.w3.org/1999/xlink" version="1.1" id="Layer_1" x="0px" y="0px" viewBox="0 0 490 490" style="enable-background:new 0 0 490 490;" xml:space="preserve" width="512" height="512">
<g>
	<circle style="fill:#F75454;" cx="245" cy="245" r="245"/>
	<path style="fill:#151A1C;" d="M397.196,178.509h-16.663V72.014h16.663c6.536,0,11.835,5.299,11.835,11.835v82.824   C409.031,173.21,403.732,178.509,397.196,178.509z"/>
	<path style="fill:#151A1C;" d="M91.381,115.269h20.956V72.014H91.381c-4.166,0-7.543,3.377-7.543,7.543v28.169   C83.838,111.892,87.215,115.269,91.381,115.269z"/>
	<path style="fill:#151A1C;" d="M91.381,164.812h20.956v-43.255H91.381c-4.166,0-7.543,3.377-7.543,7.543v28.169   C83.838,161.435,87.215,164.812,91.381,164.812z"/>
	<path style="fill:#2F373B;" d="M398.013,55.319v381.03c-41.93,33.58-95.12,53.65-153.01,53.65c-57.9,0-111.09-20.08-153.02-53.66   V55.319c0-0.57,0.01-1.13,0.03-1.69c0.89-24.5,21.03-44.08,45.74-44.08h214.49c24.71,0,44.85,19.58,45.74,44.07   C398.003,54.179,398.013,54.749,398.013,55.319z"/>
	<path style="fill:#FFFFFF;" d="M385.543,101.979v305.13c0,6.26-2.78,11.86-7.16,15.63c-3.62,3.15-8.35,5.05-13.51,5.05h-239.74   c-11.42,0-20.68-9.26-20.68-20.68v-305.13c0-11.42,9.26-20.68,20.68-20.68h239.74C376.293,81.299,385.543,90.559,385.543,101.979z"/>
	<path style="fill:#151A1C;" d="M285,52.313h-80c-4.143,0-7.5-3.358-7.5-7.5s3.357-7.5,7.5-7.5h80c4.143,0,7.5,3.358,7.5,7.5   S289.143,52.313,285,52.313z"/>
	<circle style="fill:#151A1C;" cx="245" cy="461.906" r="14.999"/>
	<path style="fill:#3B9CB7;" d="M385.543,101.979v168.32l-189-189h168.33C376.293,81.299,385.543,90.559,385.543,101.979z"/>
	<g>
		<polygon style="fill:#F75454;" points="314.063,393.999 244.993,361.089 175.933,393.999 244.993,248.039   "/>
		<polygon style="fill:#D12C50;" points="244.993,248.039 244.993,361.089 175.933,393.999   "/>
	</g>
	<path style="fill:#55D485;" d="M261.563,149.399l-157.11,157.11v-204.53c0-11.42,9.26-20.68,20.68-20.68h68.33L261.563,149.399z"/>
	<polygon style="fill:#FFE05C;" points="385.543,254.159 385.543,302.079 164.763,81.299 212.683,81.299  "/>
	<polygon style="fill:#FFE05C;" points="220.433,108.269 104.453,224.249 104.453,176.329 196.473,84.309  "/>
	<polygon style="fill:#FFE05C;" points="277.123,164.959 104.453,337.619 104.453,289.709 253.163,140.999  "/>
</g>















</svg>
